{"title":"Obsessive Compulsive Cleaners S04E01 HDTV x264-BARGE","uid":12079535,"size":354254649,"categoryP":"video","categoryS":"tv_shows","magnet":"?xt=urn:btih:fff601e1376525ad7b7dfc864729d35247752c51&amp;dn=Obsessive+Compulsive+Cleaners+S04E01+HDTV+x264-BARGE&amp;tr=udp%3A%2F%2Ftracker.openbittorrent.com%3A80&amp;tr=udp%3A%2F%2Fopen.demonii.com%3A1337&amp;tr=udp%3A%2F%2Ftracker.coppersurfer.tk%3A6969&amp;tr=udp%3A%2F%2Fexodus.desync.com%3A6969","seeders":0,"leechers":0,"uploader":"Mulva1989","files":2,"time":1435710800,"description":"Obsessive Compulsive Cleaners S04E01 HDTV x264-BARGE\n\nCleaners Vinny, who spends Â£600 a month on cleaning products, and OCD-diagnosed Denise, who cleans her house for up to eight hours a day, visit the Grade II listed 18th century Georgian country house Top-Y-Fron Hall, home to Tiggy and her cat Toby.\n\nScreens @ &lt;a href=&quot;\nhttps://yuq.me/users/50/321/W3SpzOZ9kt.jpg&quot; rel=&quot;nofollow&quot; target=&quot;_NEW&quot;&gt;\nhttps://yuq.me/users/50/321/W3SpzOZ9kt.jpg&lt;/a&gt; &lt;a href=&quot;\nhttps://yuq.me/users/50/321/ieBMVxuE2q.jpg&quot; rel=&quot;nofollow&quot; target=&quot;_NEW&quot;&gt;\nhttps://yuq.me/users/50/321/ieBMVxuE2q.jpg&lt;/a&gt;\n\nFormat : MPEG-4\nFormat profile : Base Media\nCodec ID : isom\nFile size : 338 MiB\nDuration : 47mn 30s\nOverall bit rate mode : Variable\nOverall bit rate : 994 Kbps\n\nVideo\nID : 1\nFormat : AVC\nFormat/Info : Advanced Video Codec\nFormat profile : &lt;a class=&quot;__cf_email__&quot; href=&quot;/cdn-cgi/l/email-protection&quot; data-cfemail=&quot;266e4f414e666a150817&quot;&gt;[email&amp;#160;protected]&lt;/a&gt;&lt;script data-cfhash='f9e31' type=&quot;text/javascript&quot;&gt;\n/* &lt;![CDATA[ */!function(){try{var t=&quot;currentScript&quot;in document?document.currentScript:function(){for(var t=document.getElementsByTagName(&quot;script&quot;),e=t.length;e--;)if(t[e].getAttribute(&quot;data-cfhash&quot;))return t[e]}();if(t&amp;&amp;t.previousSibling){var e,r,n,i,c=t.previousSibling,a=c.getAttribute(&quot;data-cfemail&quot;);if(a){for(e=&quot;&quot;,r=parseInt(a.substr(0,2),16),n=2;a.length-n;n+=2)i=parseInt(a.substr(n,2),16)^r,e+=String.fromCharCode(i);e=document.createTextNode(e),c.parentNode.replaceChild(e,c)}t.parentNode.removeChild(t);}}catch(u){}}()/* ]]&gt; */&lt;/script&gt;\nFormat settings, CABAC : Yes\nFormat settings, ReFrames : 5 frames\nCodec ID : avc1\nCodec ID/Info : Advanced Video Coding\nDuration : 47mn 30s\nBit rate : 856 Kbps\nMaximum bit rate : 6 283 Kbps\nWidth : 720 pixels\nHeight : 406 pixels\nDisplay aspect ratio : 16:9\nFrame rate mode : Constant\nFrame rate : 25.000 fps\nColor space : YUV\nChroma subsampling : 4:2:0\nBit depth : 8 bits\nScan type : Progressive\nBits/(Pixel*Frame) : 0.117\nStream size : 291 MiB (86%)\nTitle : Video\nWriting library : x264 core 146 r2538 121396c\nEncoding settings : cabac=1 / ref=5 / deblock=1:0:0 / analyse=0x3:0x113 / me=umh / subme=8 / psy=1 / psy_rd=1.00:0.00 / mixed_ref=1 / me_range=16 / chroma_me=1 / trellis=1 / 8x8dct=1 / cqm=0 / deadzone=21,11 / fast_pskip=1 / chroma_qp_offset=-2 / threads=12 / lookahead_threads=2 / sliced_threads=0 / nr=0 / decimate=1 / interlaced=0 / bluray_compat=0 / constrained_intra=0 / bframes=3 / b_pyramid=2 / b_adapt=2 / b_bias=0 / direct=3 / weightb=1 / open_gop=0 / weightp=2 / keyint=250 / keyint_min=25 / scenecut=40 / intra_refresh=0 / rc_lookahead=50 / rc=crf / mbtree=1 / crf=21.0 / qcomp=0.60 / qpmin=0 / qpmax=69 / qpstep=4 / ip_ratio=1.40 / aq=1:1.00\nMatrix coefficients : BT.709\nColor range : Limited\n\nAudio\nID : 2\nFormat : AAC\nFormat/Info : Advanced Audio Codec\nFormat profile : LC\nCodec ID : 40\nDuration : 47mn 30s\nBit rate mode : Variable\nBit rate : 132 Kbps\nMaximum bit rate : 171 Kbps\nChannel(s) : 2 channels\nChannel positions : Front: L R\nSampling rate : 48.0 KHz\nCompression mode : Lossy\nStream size : 45.4 MiB (13%)","torrent":{"xt":"urn:btih:fff601e1376525ad7b7dfc864729d35247752c51","amp;dn":"Obsessive+Compulsive+Cleaners+S04E01+HDTV+x264-BARGE","amp;tr":["udp%3A%2F%2Ftracker.openbittorrent.com%3A80","udp%3A%2F%2Fopen.demonii.com%3A1337","udp%3A%2F%2Ftracker.coppersurfer.tk%3A6969","udp%3A%2F%2Fexodus.desync.com%3A6969"],"infoHash":"fff601e1376525ad7b7dfc864729d35247752c51","infoHashBuffer":{"type":"Buffer","data":[255,246,1,225,55,101,37,173,123,125,252,134,71,41,211,82,71,117,44,81]},"announce":[],"urlList":[]}}